<svg width="1132" height="480" viewBox="0 0 1132 480" fill="none" xmlns="http://www.w3.org/2000/svg">
<rect width="1132" height="480" fill="#1B1F23"/>
<path d="M1096 76C1096 77.1046 1096.9 78 1098 78C1099.1 78 1100 77.1046 1100 76C1100 74.8954 1099.1 74 1098 74C1096.9 74 1096 74.8954 1096 76Z" fill="#044289"/>
<path d="M1076 76C1076 77.1046 1076.9 78 1078 78C1079.1 78 1080 77.1046 1080 76C1080 74.8954 1079.1 74 1078 74C1076.9 74 1076 74.8954 1076 76Z" fill="#044289"/>
<path d="M1056 76C1056 77.1046 1056.9 78 1058 78C1059.1 78 1060 77.1046 1060 76C1060 74.8954 1059.1 74 1058 74C1056.9 74 1056 74.8954 1056 76Z" fill="#044289"/>
<path d="M1036 76C1036 77.1046 1036.9 78 1038 78C1039.1 78 1040 77.1046 1040 76C1040 74.8954 1039.1 74 1038 74C1036.9 74 1036 74.8954 1036 76Z" fill="#044289"/>
<path d="M1016 76C1016 77.1046 1016.9 78 1018 78C1019.1 78 1020 77.1046 1020 76C1020 74.8954 1019.1 74 1018 74C1016.9 74 1016 74.8954 1016 76Z" fill="#044289"/>
<path d="M1086 88C1086 89.1046 1086.9 90 1088 90C1089.1 90 1090 89.1046 1090 88C1090 86.8954 1089.1 86 1088 86C1086.9 86 1086 86.8954 1086 88Z" fill="#044289"/>
<path d="M1066 88C1066 89.1046 1066.9 90 1068 90C1069.1 90 1070 89.1046 1070 88C1070 86.8954 1069.1 86 1068 86C1066.9 86 1066 86.8954 1066 88Z" fill="#044289"/>
<path d="M1046 88C1046 89.1046 1046.9 90 1048 90C1049.1 90 1050 89.1046 1050 88C1050 86.8954 1049.1 86 1048 86C1046.9 86 1046 86.8954 1046 88Z" fill="#044289"/>
<path d="M1026 88C1026 89.1046 1026.9 90 1028 90C1029.1 90 1030 89.1046 1030 88C1030 86.8954 1029.1 86 1028 86C1026.9 86 1026 86.8954 1026 88Z" fill="#044289"/>
<path d="M1006 88C1006 89.1046 1006.9 90 1008 90C1009.1 90 1010 89.1046 1010 88C1010 86.8954 1009.1 86 1008 86C1006.9 86 1006 86.8954 1006 88Z" fill="#044289"/>
<path d="M1096 100C1096 101.105 1096.9 102 1098 102C1099.1 102 1100 101.105 1100 100C1100 98.8954 1099.1 98 1098 98C1096.9 98 1096 98.8954 1096 100Z" fill="#044289"/>
<path d="M1076 100C1076 101.105 1076.9 102 1078 102C1079.1 102 1080 101.105 1080 100C1080 98.8954 1079.1 98 1078 98C1076.9 98 1076 98.8954 1076 100Z" fill="#044289"/>
<path d="M1056 100C1056 101.105 1056.9 102 1058 102C1059.1 102 1060 101.105 1060 100C1060 98.8954 1059.1 98 1058 98C1056.9 98 1056 98.8954 1056 100Z" fill="#044289"/>
<path d="M1036 100C1036 101.105 1036.9 102 1038 102C1039.1 102 1040 101.105 1040 100C1040 98.8954 1039.1 98 1038 98C1036.9 98 1036 98.8954 1036 100Z" fill="#044289"/>
<path d="M1016 100C1016 101.105 1016.9 102 1018 102C1019.1 102 1020 101.105 1020 100C1020 98.8954 1019.1 98 1018 98C1016.9 98 1016 98.8954 1016 100Z" fill="#044289"/>
<path d="M1086 112C1086 113.105 1086.9 114 1088 114C1089.1 114 1090 113.105 1090 112C1090 110.895 1089.1 110 1088 110C1086.9 110 1086 110.895 1086 112Z" fill="#044289"/>
<path d="M1066 112C1066 113.105 1066.9 114 1068 114C1069.1 114 1070 113.105 1070 112C1070 110.895 1069.1 110 1068 110C1066.9 110 1066 110.895 1066 112Z" fill="#044289"/>
<path d="M1046 112C1046 113.105 1046.9 114 1048 114C1049.1 114 1050 113.105 1050 112C1050 110.895 1049.1 110 1048 110C1046.9 110 1046 110.895 1046 112Z" fill="#044289"/>
<path d="M1026 112C1026 113.105 1026.9 114 1028 114C1029.1 114 1030 113.105 1030 112C1030 110.895 1029.1 110 1028 110C1026.9 110 1026 110.895 1026 112Z" fill="#044289"/>
<path d="M1006 112C1006 113.105 1006.9 114 1008 114C1009.1 114 1010 113.105 1010 112C1010 110.895 1009.1 110 1008 110C1006.9 110 1006 110.895 1006 112Z" fill="#044289"/>
<path d="M1096 124C1096 125.105 1096.9 126 1098 126C1099.1 126 1100 125.105 1100 124C1100 122.895 1099.1 122 1098 122C1096.9 122 1096 122.895 1096 124Z" fill="#044289"/>
<path d="M1076 124C1076 125.105 1076.9 126 1078 126C1079.1 126 1080 125.105 1080 124C1080 122.895 1079.1 122 1078 122C1076.9 122 1076 122.895 1076 124Z" fill="#044289"/>
<path d="M1056 124C1056 125.105 1056.9 126 1058 126C1059.1 126 1060 125.105 1060 124C1060 122.895 1059.1 122 1058 122C1056.9 122 1056 122.895 1056 124Z" fill="#044289"/>
<path d="M1036 124C1036 125.105 1036.9 126 1038 126C1039.1 126 1040 125.105 1040 124C1040 122.895 1039.1 122 1038 122C1036.9 122 1036 122.895 1036 124Z" fill="#044289"/>
<path d="M1016 124C1016 125.105 1016.9 126 1018 126C1019.1 126 1020 125.105 1020 124C1020 122.895 1019.1 122 1018 122C1016.9 122 1016 122.895 1016 124Z" fill="#044289"/>
<path d="M1086 136C1086 137.105 1086.9 138 1088 138C1089.1 138 1090 137.105 1090 136C1090 134.895 1089.1 134 1088 134C1086.9 134 1086 134.895 1086 136Z" fill="#044289"/>
<path d="M1066 136C1066 137.105 1066.9 138 1068 138C1069.1 138 1070 137.105 1070 136C1070 134.895 1069.1 134 1068 134C1066.9 134 1066 134.895 1066 136Z" fill="#044289"/>
<path d="M1046 136C1046 137.105 1046.9 138 1048 138C1049.1 138 1050 137.105 1050 136C1050 134.895 1049.1 134 1048 134C1046.9 134 1046 134.895 1046 136Z" fill="#044289"/>
<path d="M1026 136C1026 137.105 1026.9 138 1028 138C1029.1 138 1030 137.105 1030 136C1030 134.895 1029.1 134 1028 134C1026.9 134 1026 134.895 1026 136Z" fill="#044289"/>
<path d="M1006 136C1006 137.105 1006.9 138 1008 138C1009.1 138 1010 137.105 1010 136C1010 134.895 1009.1 134 1008 134C1006.9 134 1006 134.895 1006 136Z" fill="#044289"/>
<path d="M1096 148C1096 149.105 1096.9 150 1098 150C1099.1 150 1100 149.105 1100 148C1100 146.895 1099.1 146 1098 146C1096.9 146 1096 146.895 1096 148Z" fill="#044289"/>
<path d="M1076 148C1076 149.105 1076.9 150 1078 150C1079.1 150 1080 149.105 1080 148C1080 146.895 1079.1 146 1078 146C1076.9 146 1076 146.895 1076 148Z" fill="#044289"/>
<path d="M1056 148C1056 149.105 1056.9 150 1058 150C1059.1 150 1060 149.105 1060 148C1060 146.895 1059.1 146 1058 146C1056.9 146 1056 146.895 1056 148Z" fill="#044289"/>
<path d="M1036 148C1036 149.105 1036.9 150 1038 150C1039.1 150 1040 149.105 1040 148C1040 146.895 1039.1 146 1038 146C1036.9 146 1036 146.895 1036 148Z" fill="#044289"/>
<path d="M1016 148C1016 149.105 1016.9 150 1018 150C1019.1 150 1020 149.105 1020 148C1020 146.895 1019.1 146 1018 146C1016.9 146 1016 146.895 1016 148Z" fill="#044289"/>
<rect x="814.5" y="108.5" width="255" height="255" fill="#1B1F23" stroke="#79B8FF"/>
<circle cx="986" cy="39.0142" r="5.5" stroke="#0366D6"/>
<circle cx="90" cy="49.0142" r="5.5" stroke="#0366D6"/>
<path d="M36 282C36 283.105 35.1046 284 34 284C32.8954 284 32 283.105 32 282C32 280.895 32.8954 280 34 280C35.1046 280 36 280.895 36 282Z" fill="#044289"/>
<path d="M56 282C56 283.105 55.1046 284 54 284C52.8954 284 52 283.105 52 282C52 280.895 52.8954 280 54 280C55.1046 280 56 280.895 56 282Z" fill="#044289"/>
<path d="M76 282C76 283.105 75.1046 284 74 284C72.8954 284 72 283.105 72 282C72 280.895 72.8954 280 74 280C75.1046 280 76 280.895 76 282Z" fill="#044289"/>
<path d="M96 282C96 283.105 95.1046 284 94 284C92.8954 284 92 283.105 92 282C92 280.895 92.8954 280 94 280C95.1046 280 96 280.895 96 282Z" fill="#044289"/>
<path d="M116 282C116 283.105 115.105 284 114 284C112.895 284 112 283.105 112 282C112 280.895 112.895 280 114 280C115.105 280 116 280.895 116 282Z" fill="#044289"/>
<path d="M46 294C46 295.105 45.1046 296 44 296C42.8954 296 42 295.105 42 294C42 292.895 42.8954 292 44 292C45.1046 292 46 292.895 46 294Z" fill="#044289"/>
<path d="M66 294C66 295.105 65.1046 296 64 296C62.8954 296 62 295.105 62 294C62 292.895 62.8954 292 64 292C65.1046 292 66 292.895 66 294Z" fill="#044289"/>
<path d="M86 294C86 295.105 85.1046 296 84 296C82.8954 296 82 295.105 82 294C82 292.895 82.8954 292 84 292C85.1046 292 86 292.895 86 294Z" fill="#044289"/>
<path d="M106 294C106 295.105 105.105 296 104 296C102.895 296 102 295.105 102 294C102 292.895 102.895 292 104 292C105.105 292 106 292.895 106 294Z" fill="#044289"/>
<path d="M126 294C126 295.105 125.105 296 124 296C122.895 296 122 295.105 122 294C122 292.895 122.895 292 124 292C125.105 292 126 292.895 126 294Z" fill="#044289"/>
<path d="M36 306C36 307.105 35.1046 308 34 308C32.8954 308 32 307.105 32 306C32 304.895 32.8954 304 34 304C35.1046 304 36 304.895 36 306Z" fill="#044289"/>
<path d="M56 306C56 307.105 55.1046 308 54 308C52.8954 308 52 307.105 52 306C52 304.895 52.8954 304 54 304C55.1046 304 56 304.895 56 306Z" fill="#044289"/>
<path d="M76 306C76 307.105 75.1046 308 74 308C72.8954 308 72 307.105 72 306C72 304.895 72.8954 304 74 304C75.1046 304 76 304.895 76 306Z" fill="#044289"/>
<path d="M96 306C96 307.105 95.1046 308 94 308C92.8954 308 92 307.105 92 306C92 304.895 92.8954 304 94 304C95.1046 304 96 304.895 96 306Z" fill="#044289"/>
<path d="M116 306C116 307.105 115.105 308 114 308C112.895 308 112 307.105 112 306C112 304.895 112.895 304 114 304C115.105 304 116 304.895 116 306Z" fill="#044289"/>
<path d="M46 318C46 319.105 45.1046 320 44 320C42.8954 320 42 319.105 42 318C42 316.895 42.8954 316 44 316C45.1046 316 46 316.895 46 318Z" fill="#044289"/>
<path d="M66 318C66 319.105 65.1046 320 64 320C62.8954 320 62 319.105 62 318C62 316.895 62.8954 316 64 316C65.1046 316 66 316.895 66 318Z" fill="#044289"/>
<path d="M86 318C86 319.105 85.1046 320 84 320C82.8954 320 82 319.105 82 318C82 316.895 82.8954 316 84 316C85.1046 316 86 316.895 86 318Z" fill="#044289"/>
<path d="M106 318C106 319.105 105.105 320 104 320C102.895 320 102 319.105 102 318C102 316.895 102.895 316 104 316C105.105 316 106 316.895 106 318Z" fill="#044289"/>
<path d="M126 318C126 319.105 125.105 320 124 320C122.895 320 122 319.105 122 318C122 316.895 122.895 316 124 316C125.105 316 126 316.895 126 318Z" fill="#044289"/>
<path d="M36 330C36 331.105 35.1046 332 34 332C32.8954 332 32 331.105 32 330C32 328.895 32.8954 328 34 328C35.1046 328 36 328.895 36 330Z" fill="#044289"/>
<path d="M56 330C56 331.105 55.1046 332 54 332C52.8954 332 52 331.105 52 330C52 328.895 52.8954 328 54 328C55.1046 328 56 328.895 56 330Z" fill="#044289"/>
<path d="M76 330C76 331.105 75.1046 332 74 332C72.8954 332 72 331.105 72 330C72 328.895 72.8954 328 74 328C75.1046 328 76 328.895 76 330Z" fill="#044289"/>
<path d="M96 330C96 331.105 95.1046 332 94 332C92.8954 332 92 331.105 92 330C92 328.895 92.8954 328 94 328C95.1046 328 96 328.895 96 330Z" fill="#044289"/>
<path d="M116 330C116 331.105 115.105 332 114 332C112.895 332 112 331.105 112 330C112 328.895 112.895 328 114 328C115.105 328 116 328.895 116 330Z" fill="#044289"/>
<path d="M46 342C46 343.105 45.1046 344 44 344C42.8954 344 42 343.105 42 342C42 340.895 42.8954 340 44 340C45.1046 340 46 340.895 46 342Z" fill="#044289"/>
<path d="M66 342C66 343.105 65.1046 344 64 344C62.8954 344 62 343.105 62 342C62 340.895 62.8954 340 64 340C65.1046 340 66 340.895 66 342Z" fill="#044289"/>
<path d="M86 342C86 343.105 85.1046 344 84 344C82.8954 344 82 343.105 82 342C82 340.895 82.8954 340 84 340C85.1046 340 86 340.895 86 342Z" fill="#044289"/>
<path d="M106 342C106 343.105 105.105 344 104 344C102.895 344 102 343.105 102 342C102 340.895 102.895 340 104 340C105.105 340 106 340.895 106 342Z" fill="#044289"/>
<path d="M126 342C126 343.105 125.105 344 124 344C122.895 344 122 343.105 122 342C122 340.895 122.895 340 124 340C125.105 340 126 340.895 126 342Z" fill="#044289"/>
<path d="M36 354C36 355.105 35.1046 356 34 356C32.8954 356 32 355.105 32 354C32 352.895 32.8954 352 34 352C35.1046 352 36 352.895 36 354Z" fill="#044289"/>
<path d="M56 354C56 355.105 55.1046 356 54 356C52.8954 356 52 355.105 52 354C52 352.895 52.8954 352 54 352C55.1046 352 56 352.895 56 354Z" fill="#044289"/>
<path d="M76 354C76 355.105 75.1046 356 74 356C72.8954 356 72 355.105 72 354C72 352.895 72.8954 352 74 352C75.1046 352 76 352.895 76 354Z" fill="#044289"/>
<path d="M96 354C96 355.105 95.1046 356 94 356C92.8954 356 92 355.105 92 354C92 352.895 92.8954 352 94 352C95.1046 352 96 352.895 96 354Z" fill="#044289"/>
<path d="M116 354C116 355.105 115.105 356 114 356C112.895 356 112 355.105 112 354C112 352.895 112.895 352 114 352C115.105 352 116 352.895 116 354Z" fill="#044289"/>
<rect x="62.5" y="68.5142" width="255" height="255" fill="#1B1F23" stroke="#79B8FF"/>
<path fill-rule="evenodd" clip-rule="evenodd" d="M628 334H620L626 320L608 338H616L610 352L628 334V334Z" fill="#C8E1FF"/>
<rect x="94" y="206" width="24" height="32" fill="#044289"/>
<rect x="150" y="206" width="144" height="32" fill="#044289"/>
<rect x="330" y="206" width="40" height="32" fill="#044289"/>
<rect x="50" y="108" width="24" height="48" fill="#005CC5"/>
<rect x="98" y="108" width="116" height="48" fill="#005CC5"/>
<path d="M210 248C202 248 202 232 194 232C186 232 186 248 178 248C170 248 170 232 162 232C154 232 154 248 146 248C138 248 138 232 130 232" stroke="#79B8FF" stroke-linecap="round" stroke-linejoin="round"/>
<path d="M212 161L207 169.66H197L192 161L197 152.34H207L212 161Z" stroke="#79B8FF" stroke-linecap="round" stroke-linejoin="round"/>
<rect x="774.313" y="163" width="16" height="16" transform="rotate(45 774.313 163)" stroke="#C8E1FF" stroke-linejoin="round"/>
<path d="M719 384C719 385.105 719.895 386 721 386C722.105 386 723 385.105 723 384C723 382.895 722.105 382 721 382C719.895 382 719 382.895 719 384Z" fill="#044289"/>
<path d="M699 384C699 385.105 699.895 386 701 386C702.105 386 703 385.105 703 384C703 382.895 702.105 382 701 382C699.895 382 699 382.895 699 384Z" fill="#044289"/>
<path d="M679 384C679 385.105 679.895 386 681 386C682.105 386 683 385.105 683 384C683 382.895 682.105 382 681 382C679.895 382 679 382.895 679 384Z" fill="#044289"/>
<path d="M659 384C659 385.105 659.895 386 661 386C662.105 386 663 385.105 663 384C663 382.895 662.105 382 661 382C659.895 382 659 382.895 659 384Z" fill="#044289"/>
<path d="M639 384C639 385.105 639.895 386 641 386C642.105 386 643 385.105 643 384C643 382.895 642.105 382 641 382C639.895 382 639 382.895 639 384Z" fill="#044289"/>
<path d="M709 396C709 397.105 709.895 398 711 398C712.105 398 713 397.105 713 396C713 394.895 712.105 394 711 394C709.895 394 709 394.895 709 396Z" fill="#044289"/>
<path d="M689 396C689 397.105 689.895 398 691 398C692.105 398 693 397.105 693 396C693 394.895 692.105 394 691 394C689.895 394 689 394.895 689 396Z" fill="#044289"/>
<path d="M669 396C669 397.105 669.895 398 671 398C672.105 398 673 397.105 673 396C673 394.895 672.105 394 671 394C669.895 394 669 394.895 669 396Z" fill="#044289"/>
<path d="M649 396C649 397.105 649.895 398 651 398C652.105 398 653 397.105 653 396C653 394.895 652.105 394 651 394C649.895 394 649 394.895 649 396Z" fill="#044289"/>
<path d="M629 396C629 397.105 629.895 398 631 398C632.105 398 633 397.105 633 396C633 394.895 632.105 394 631 394C629.895 394 629 394.895 629 396Z" fill="#044289"/>
<path d="M719 408C719 409.105 719.895 410 721 410C722.105 410 723 409.105 723 408C723 406.895 722.105 406 721 406C719.895 406 719 406.895 719 408Z" fill="#044289"/>
<path d="M699 408C699 409.105 699.895 410 701 410C702.105 410 703 409.105 703 408C703 406.895 702.105 406 701 406C699.895 406 699 406.895 699 408Z" fill="#044289"/>
<path d="M679 408C679 409.105 679.895 410 681 410C682.105 410 683 409.105 683 408C683 406.895 682.105 406 681 406C679.895 406 679 406.895 679 408Z" fill="#044289"/>
<path d="M659 408C659 409.105 659.895 410 661 410C662.105 410 663 409.105 663 408C663 406.895 662.105 406 661 406C659.895 406 659 406.895 659 408Z" fill="#044289"/>
<path d="M639 408C639 409.105 639.895 410 641 410C642.105 410 643 409.105 643 408C643 406.895 642.105 406 641 406C639.895 406 639 406.895 639 408Z" fill="#044289"/>
<path d="M709 420C709 421.105 709.895 422 711 422C712.105 422 713 421.105 713 420C713 418.895 712.105 418 711 418C709.895 418 709 418.895 709 420Z" fill="#044289"/>
<path d="M689 420C689 421.105 689.895 422 691 422C692.105 422 693 421.105 693 420C693 418.895 692.105 418 691 418C689.895 418 689 418.895 689 420Z" fill="#044289"/>
<path d="M669 420C669 421.105 669.895 422 671 422C672.105 422 673 421.105 673 420C673 418.895 672.105 418 671 418C669.895 418 669 418.895 669 420Z" fill="#044289"/>
<path d="M649 420C649 421.105 649.895 422 651 422C652.105 422 653 421.105 653 420C653 418.895 652.105 418 651 418C649.895 418 649 418.895 649 420Z" fill="#044289"/>
<path d="M629 420C629 421.105 629.895 422 631 422C632.105 422 633 421.105 633 420C633 418.895 632.105 418 631 418C629.895 418 629 418.895 629 420Z" fill="#044289"/>
<path d="M719 432C719 433.105 719.895 434 721 434C722.105 434 723 433.105 723 432C723 430.895 722.105 430 721 430C719.895 430 719 430.895 719 432Z" fill="#044289"/>
<path d="M699 432C699 433.105 699.895 434 701 434C702.105 434 703 433.105 703 432C703 430.895 702.105 430 701 430C699.895 430 699 430.895 699 432Z" fill="#044289"/>
<path d="M679 432C679 433.105 679.895 434 681 434C682.105 434 683 433.105 683 432C683 430.895 682.105 430 681 430C679.895 430 679 430.895 679 432Z" fill="#044289"/>
<path d="M659 432C659 433.105 659.895 434 661 434C662.105 434 663 433.105 663 432C663 430.895 662.105 430 661 430C659.895 430 659 430.895 659 432Z" fill="#044289"/>
<path d="M639 432C639 433.105 639.895 434 641 434C642.105 434 643 433.105 643 432C643 430.895 642.105 430 641 430C639.895 430 639 430.895 639 432Z" fill="#044289"/>
<path d="M709 444C709 445.105 709.895 446 711 446C712.105 446 713 445.105 713 444C713 442.895 712.105 442 711 442C709.895 442 709 442.895 709 444Z" fill="#044289"/>
<path d="M689 444C689 445.105 689.895 446 691 446C692.105 446 693 445.105 693 444C693 442.895 692.105 442 691 442C689.895 442 689 442.895 689 444Z" fill="#044289"/>
<path d="M669 444C669 445.105 669.895 446 671 446C672.105 446 673 445.105 673 444C673 442.895 672.105 442 671 442C669.895 442 669 442.895 669 444Z" fill="#044289"/>
<path d="M649 444C649 445.105 649.895 446 651 446C652.105 446 653 445.105 653 444C653 442.895 652.105 442 651 442C649.895 442 649 442.895 649 444Z" fill="#044289"/>
<path d="M629 444C629 445.105 629.895 446 631 446C632.105 446 633 445.105 633 444C633 442.895 632.105 442 631 442C629.895 442 629 442.895 629 444Z" fill="#044289"/>
<path d="M719 456C719 457.105 719.895 458 721 458C722.105 458 723 457.105 723 456C723 454.895 722.105 454 721 454C719.895 454 719 454.895 719 456Z" fill="#044289"/>
<path d="M699 456C699 457.105 699.895 458 701 458C702.105 458 703 457.105 703 456C703 454.895 702.105 454 701 454C699.895 454 699 454.895 699 456Z" fill="#044289"/>
<path d="M679 456C679 457.105 679.895 458 681 458C682.105 458 683 457.105 683 456C683 454.895 682.105 454 681 454C679.895 454 679 454.895 679 456Z" fill="#044289"/>
<path d="M659 456C659 457.105 659.895 458 661 458C662.105 458 663 457.105 663 456C663 454.895 662.105 454 661 454C659.895 454 659 454.895 659 456Z" fill="#044289"/>
<path d="M639 456C639 457.105 639.895 458 641 458C642.105 458 643 457.105 643 456C643 454.895 642.105 454 641 454C639.895 454 639 454.895 639 456Z" fill="#044289"/>
<rect x="438.5" y="169.5" width="255" height="255" fill="#1B1F23" stroke="#79B8FF"/>
<rect x="970" y="156" width="116" height="48" transform="scale(-1 1)" fill="#044289"/>
<rect x="886" y="220" width="32" height="32" transform="scale(-1 1)" fill="#0366D6"/>
<path d="M1050 293L1045 301.66H1035L1030 293L1035 284.34H1045L1050 293Z" stroke="#79B8FF" stroke-linecap="round" stroke-linejoin="round"/>
<path d="M1003.71 370.856L989.856 394.856L976 370.856L1003.71 370.856Z" stroke="#2188FF" stroke-linecap="round" stroke-linejoin="round"/>
<circle cx="1044" cy="283" r="5.5" stroke="#79B8FF"/>
<path d="M1017 351C1011.34 345.343 1022.66 334.029 1017 328.373C1011.34 322.716 1000.03 334.029 994.373 328.373C988.716 322.716 1000.03 311.402 994.373 305.745C988.716 300.088 977.402 311.402 971.745 305.745C966.088 300.088 977.402 288.775 971.745 283.118" stroke="#2188FF" stroke-linecap="round" stroke-linejoin="round"/>
<path d="M983.568 339.882C977.912 334.225 989.225 322.912 983.568 317.255C977.912 311.598 966.598 322.912 960.941 317.255C955.284 311.598 966.598 300.284 960.941 294.627C955.284 288.971 943.97 300.284 938.314 294.627C932.657 288.971 943.97 277.657 938.314 272" stroke="#79B8FF" stroke-linecap="round" stroke-linejoin="round"/>
<path d="M183 89.0141C277 -9.9859 453 32.0141 362 123.014C271 214.014 262.256 473.231 389 342.014C516.5 210.014 599.5 239.014 617 329.514C635.341 424.366 715.384 430.698 727 247.014C743 -5.98584 1086.5 1.51416 935 153.014" stroke="#005CC5"/>
<path fill-rule="evenodd" clip-rule="evenodd" d="M932 145.014V147.014L933.25 149.514L922 157.014H912.5C911.4 157.014 910.825 158.339 911.65 159.164L919.5 167.014L909.5 179.514L922 169.514L929.85 177.364C930.675 178.189 932 177.589 932 176.514V167.014L939.5 155.764L942 157.014H944C945.1 157.014 945.675 155.689 944.85 154.864L934.15 144.164C933.325 143.339 932 143.939 932 145.014V145.014Z" fill="#C8E1FF"/>
<ellipse cx="395.305" cy="335.896" rx="11.7904" ry="4.33694" transform="rotate(-44.8239 395.305 335.896)" fill="#1B1F23"/>
<path fill-rule="evenodd" clip-rule="evenodd" d="M400.412 330.747C399.877 330.202 399.482 329.639 399.168 328.976C398.853 328.353 398.639 327.652 398.506 326.93C397.34 327.58 396.173 328.31 395.026 329.16C393.858 330.03 392.73 331.02 391.62 332.09C390.208 333.478 388.929 335.687 388.018 336.959L382.018 336.907L375.966 342.874L381.965 342.927L386 338.962C385.307 340.496 383.908 344.904 383.948 344.944L385.93 346.961C385.97 347.002 390.401 345.72 391.948 345.014L387.913 348.979L387.86 354.978L393.913 349.031L393.965 343.031C395.253 342.142 397.484 340.882 398.896 339.514C400.005 338.424 401.015 337.273 401.865 336.14C402.755 334.988 403.506 333.834 404.175 332.72C403.457 332.554 402.779 332.328 402.121 332.022C401.504 331.697 400.948 331.292 400.412 330.747V330.747ZM408.139 323.154C408.139 323.154 407.952 323.913 407.52 325.269C407.108 326.665 406.393 328.419 405.354 330.57C403.956 330.398 402.82 329.888 402.047 329.101C401.274 328.315 400.803 327.21 400.675 325.809C402.844 324.788 404.591 324.083 405.974 323.695C407.378 323.308 408.139 323.154 408.139 323.154V323.154Z" fill="#C8E1FF"/>
<path fill-rule="evenodd" clip-rule="evenodd" d="M134 126.014V138.014H146L178 106.014L166 94.0142L134 126.014V126.014ZM146 134.014H138V126.014H142V130.014H146V134.014V134.014ZM187.2 96.814L182 102.014L170 90.014L175.2 84.814C176.76 83.254 179.28 83.254 180.84 84.814L187.2 91.174C188.76 92.734 188.76 95.254 187.2 96.814V96.814Z" fill="#C8E1FF"/>
<path fill-rule="evenodd" clip-rule="evenodd" d="M732 244C730.06 244 728.62 244.84 727.6 246C726.58 247.16 726.04 247.84 726 248C725.96 247.84 725.44 247.16 724.4 246C723.36 244.84 722.06 244 720 244C716.736 244.172 714.093 246.665 714 250C714 251.04 714.18 253.04 715.34 255.34C716.5 257.64 720.02 261.22 726 266C731.96 261.22 735.54 257.66 736.68 255.34C737.82 253.02 738 251 738 250C737.906 246.62 735.316 244.175 732 244Z" fill="#C8E1FF"/>
<path d="M375.713 118.856L361.856 142.856L348 118.856L375.713 118.856Z" stroke="#C8E1FF" stroke-linejoin="round"/>
<circle cx="655" cy="137" r="9.5" stroke="#0366D6"/>
<circle cx="672" cy="118" r="5.5" stroke="#0366D6"/>
<rect x="497" y="364" width="30" height="24" fill="#044289"/>
<rect x="587" y="364" width="30" height="24" fill="#044289"/>
<rect x="551" y="364" width="12" height="24" fill="#044289"/>
<rect x="466" y="314" width="33.0236" height="33.0159" fill="#2188FF"/>
<rect x="526.543" y="314" width="88.0628" height="33.0159" fill="#2188FF"/>
<path fill-rule="evenodd" clip-rule="evenodd" d="M629.867 424C638.931 409.963 651.996 359.425 651.996 319.526C651.996 267.105 631.2 240.999 621.996 240.999C612.791 240.999 591.996 267.105 591.996 319.526C591.996 359.425 605.061 409.963 614.125 424H629.867Z" fill="#005CC5"/>
<mask id="mask0" mask-type="alpha" maskUnits="userSpaceOnUse" x="591" y="240" width="61" height="184">
<path fill-rule="evenodd" clip-rule="evenodd" d="M629.867 424C638.931 409.963 651.996 359.425 651.996 319.526C651.996 267.105 631.2 240.999 621.996 240.999C612.791 240.999 591.996 267.105 591.996 319.526C591.996 359.425 605.061 409.963 614.125 424H629.867Z" fill="#005CC5"/>
</mask>
<g mask="url(#mask0)">
<path fill-rule="evenodd" clip-rule="evenodd" d="M623.341 275.146C623.341 268.735 618.267 263.537 612.008 263.537C605.749 263.537 600.675 268.735 600.675 275.146V296.997C600.675 303.408 605.749 308.605 612.008 308.605C618.267 308.605 623.341 303.408 623.341 296.997V275.146ZM612.008 264.903C617.531 264.903 622.008 269.489 622.008 275.146V296.997C622.008 302.653 617.531 307.239 612.008 307.239C606.485 307.239 602.008 302.653 602.008 296.997V275.146C602.008 269.489 606.485 264.903 612.008 264.903Z" fill="#79B8FF"/>
<path fill-rule="evenodd" clip-rule="evenodd" d="M628.675 284.023C628.675 272.709 619.721 263.537 608.675 263.537C597.629 263.537 588.675 272.709 588.675 284.023V309.971C588.675 321.284 597.629 330.456 608.675 330.456C619.721 330.456 628.675 321.284 628.675 309.971V284.023ZM608.675 264.903C618.984 264.903 627.341 273.463 627.341 284.023V309.971C627.341 320.53 618.984 329.09 608.675 329.09C598.365 329.09 590.008 320.53 590.008 309.971V284.023C590.008 273.463 598.365 264.903 608.675 264.903Z" fill="#79B8FF"/>
<path fill-rule="evenodd" clip-rule="evenodd" d="M652.008 336.602H633.341C623.769 336.602 616.008 344.55 616.008 354.355V433.565C616.008 443.37 623.769 451.319 633.341 451.319H652.008C661.581 451.319 669.341 443.37 669.341 433.565V354.355C669.341 344.55 661.581 336.602 652.008 336.602ZM652.008 337.967C660.845 337.967 668.008 345.304 668.008 354.355V433.565C668.008 442.616 660.845 449.953 652.008 449.953H633.341C624.505 449.953 617.341 442.616 617.341 433.565V354.355C617.341 345.304 624.505 337.967 633.341 337.967H652.008Z" fill="#79B8FF"/>
<path fill-rule="evenodd" clip-rule="evenodd" d="M649.341 352.99H638.675C632.047 352.99 626.675 358.493 626.675 365.281V402.154C626.675 408.943 632.047 414.446 638.675 414.446H649.341C655.969 414.446 661.341 408.943 661.341 402.154V365.281C661.341 358.493 655.969 352.99 649.341 352.99ZM649.341 354.355C655.233 354.355 660.008 359.247 660.008 365.281V402.154C660.008 408.188 655.233 413.08 649.341 413.08H638.675C632.784 413.08 628.008 408.188 628.008 402.154V365.281C628.008 359.247 632.784 354.355 638.675 354.355H649.341Z" fill="#79B8FF"/>
<path fill-rule="evenodd" clip-rule="evenodd" d="M649.341 365.281H642.675C637.52 365.281 633.341 369.561 633.341 374.841V395.326C633.341 400.606 637.52 404.886 642.675 404.886H649.341C654.496 404.886 658.675 400.606 658.675 395.326V374.841C658.675 369.561 654.496 365.281 649.341 365.281ZM649.341 366.647C653.76 366.647 657.341 370.315 657.341 374.841V395.326C657.341 399.851 653.76 403.52 649.341 403.52H642.675C638.257 403.52 634.675 399.851 634.675 395.326V374.841C634.675 370.315 638.257 366.647 642.675 366.647H649.341Z" fill="#79B8FF"/>
</g>
<path fill-rule="evenodd" clip-rule="evenodd" d="M647.887 281.974H596.104C602.64 254.631 615.344 240.999 621.996 240.999C628.647 240.999 641.351 254.631 647.887 281.974Z" fill="#044289"/>
<path d="M655 211.086C655 229.265 640.225 244.001 622 244.001C603.775 244.001 589 229.265 589 211.086C589 189.829 620.625 164.457 622 148C623.375 164.457 655 190.515 655 211.086Z" fill="#005CC5" stroke="#005CC5" stroke-width="2" stroke-linecap="round" stroke-linejoin="round"/>
<mask id="mask1" mask-type="alpha" maskUnits="userSpaceOnUse" x="588" y="147" width="68" height="99">
<path d="M655 211.086C655 229.265 640.225 244.001 622 244.001C603.775 244.001 589 229.265 589 211.086C589 189.829 620.625 164.457 622 148C623.375 164.457 655 190.515 655 211.086Z" fill="#C8E1FF" stroke="#C8E1FF" stroke-width="2"/>
</mask>
<g mask="url(#mask1)">
<path d="M647.987 219.954C647.987 240.113 631.646 256.455 611.487 256.455C591.329 256.455 574.987 240.113 574.987 219.954C574.987 199.796 591.329 183.454 611.487 183.454C631.646 183.454 647.987 199.796 647.987 219.954Z" fill="#79B8FF" stroke="#79B8FF" stroke-width="2"/>
</g>
<path d="M566 198C578 198 578 222 590 222C602 222 602 198 614 198C626 198 626 222 638 222" stroke="#005CC5" stroke-linecap="round"/>
</svg>
