<svg width="1068" height="426" viewBox="0 0 1068 426" fill="none" xmlns="http://www.w3.org/2000/svg">
<g clip-path="url(#clip0)">
<path d="M1064 44C1064 45.1046 1064.9 46 1066 46C1067.1 46 1068 45.1046 1068 44C1068 42.8954 1067.1 42 1066 42C1064.9 42 1064 42.8954 1064 44Z" fill="#044289"/>
<path d="M1044 44C1044 45.1046 1044.9 46 1046 46C1047.1 46 1048 45.1046 1048 44C1048 42.8954 1047.1 42 1046 42C1044.9 42 1044 42.8954 1044 44Z" fill="#044289"/>
<path d="M1024 44C1024 45.1046 1024.9 46 1026 46C1027.1 46 1028 45.1046 1028 44C1028 42.8954 1027.1 42 1026 42C1024.9 42 1024 42.8954 1024 44Z" fill="#044289"/>
<path d="M1004 44C1004 45.1046 1004.9 46 1006 46C1007.1 46 1008 45.1046 1008 44C1008 42.8954 1007.1 42 1006 42C1004.9 42 1004 42.8954 1004 44Z" fill="#044289"/>
<path d="M984 44C984 45.1046 984.895 46 986 46C987.105 46 988 45.1046 988 44C988 42.8954 987.105 42 986 42C984.895 42 984 42.8954 984 44Z" fill="#044289"/>
<path d="M1054 56C1054 57.1046 1054.9 58 1056 58C1057.1 58 1058 57.1046 1058 56C1058 54.8954 1057.1 54 1056 54C1054.9 54 1054 54.8954 1054 56Z" fill="#044289"/>
<path d="M1034 56C1034 57.1046 1034.9 58 1036 58C1037.1 58 1038 57.1046 1038 56C1038 54.8954 1037.1 54 1036 54C1034.9 54 1034 54.8954 1034 56Z" fill="#044289"/>
<path d="M1014 56C1014 57.1046 1014.9 58 1016 58C1017.1 58 1018 57.1046 1018 56C1018 54.8954 1017.1 54 1016 54C1014.9 54 1014 54.8954 1014 56Z" fill="#044289"/>
<path d="M994 56C994 57.1046 994.895 58 996 58C997.105 58 998 57.1046 998 56C998 54.8954 997.105 54 996 54C994.895 54 994 54.8954 994 56Z" fill="#044289"/>
<path d="M974 56C974 57.1046 974.895 58 976 58C977.105 58 978 57.1046 978 56C978 54.8954 977.105 54 976 54C974.895 54 974 54.8954 974 56Z" fill="#044289"/>
<path d="M1064 68C1064 69.1046 1064.9 70 1066 70C1067.1 70 1068 69.1046 1068 68C1068 66.8954 1067.1 66 1066 66C1064.9 66 1064 66.8954 1064 68Z" fill="#044289"/>
<path d="M1044 68C1044 69.1046 1044.9 70 1046 70C1047.1 70 1048 69.1046 1048 68C1048 66.8954 1047.1 66 1046 66C1044.9 66 1044 66.8954 1044 68Z" fill="#044289"/>
<path d="M1024 68C1024 69.1046 1024.9 70 1026 70C1027.1 70 1028 69.1046 1028 68C1028 66.8954 1027.1 66 1026 66C1024.9 66 1024 66.8954 1024 68Z" fill="#044289"/>
<path d="M1004 68C1004 69.1046 1004.9 70 1006 70C1007.1 70 1008 69.1046 1008 68C1008 66.8954 1007.1 66 1006 66C1004.9 66 1004 66.8954 1004 68Z" fill="#044289"/>
<path d="M984 68C984 69.1046 984.895 70 986 70C987.105 70 988 69.1046 988 68C988 66.8954 987.105 66 986 66C984.895 66 984 66.8954 984 68Z" fill="#044289"/>
<path d="M1054 80C1054 81.1046 1054.9 82 1056 82C1057.1 82 1058 81.1046 1058 80C1058 78.8954 1057.1 78 1056 78C1054.9 78 1054 78.8954 1054 80Z" fill="#044289"/>
<path d="M1034 80C1034 81.1046 1034.9 82 1036 82C1037.1 82 1038 81.1046 1038 80C1038 78.8954 1037.1 78 1036 78C1034.9 78 1034 78.8954 1034 80Z" fill="#044289"/>
<path d="M1014 80C1014 81.1046 1014.9 82 1016 82C1017.1 82 1018 81.1046 1018 80C1018 78.8954 1017.1 78 1016 78C1014.9 78 1014 78.8954 1014 80Z" fill="#044289"/>
<path d="M994 80C994 81.1046 994.895 82 996 82C997.105 82 998 81.1046 998 80C998 78.8954 997.105 78 996 78C994.895 78 994 78.8954 994 80Z" fill="#044289"/>
<path d="M974 80C974 81.1046 974.895 82 976 82C977.105 82 978 81.1046 978 80C978 78.8954 977.105 78 976 78C974.895 78 974 78.8954 974 80Z" fill="#044289"/>
<path d="M1064 92C1064 93.1046 1064.9 94 1066 94C1067.1 94 1068 93.1046 1068 92C1068 90.8954 1067.1 90 1066 90C1064.9 90 1064 90.8954 1064 92Z" fill="#044289"/>
<path d="M1044 92C1044 93.1046 1044.9 94 1046 94C1047.1 94 1048 93.1046 1048 92C1048 90.8954 1047.1 90 1046 90C1044.9 90 1044 90.8954 1044 92Z" fill="#044289"/>
<path d="M1024 92C1024 93.1046 1024.9 94 1026 94C1027.1 94 1028 93.1046 1028 92C1028 90.8954 1027.1 90 1026 90C1024.9 90 1024 90.8954 1024 92Z" fill="#044289"/>
<path d="M1004 92C1004 93.1046 1004.9 94 1006 94C1007.1 94 1008 93.1046 1008 92C1008 90.8954 1007.1 90 1006 90C1004.9 90 1004 90.8954 1004 92Z" fill="#044289"/>
<path d="M984 92C984 93.1046 984.895 94 986 94C987.105 94 988 93.1046 988 92C988 90.8954 987.105 90 986 90C984.895 90 984 90.8954 984 92Z" fill="#044289"/>
<path d="M1054 104C1054 105.105 1054.9 106 1056 106C1057.1 106 1058 105.105 1058 104C1058 102.895 1057.1 102 1056 102C1054.9 102 1054 102.895 1054 104Z" fill="#044289"/>
<path d="M1034 104C1034 105.105 1034.9 106 1036 106C1037.1 106 1038 105.105 1038 104C1038 102.895 1037.1 102 1036 102C1034.9 102 1034 102.895 1034 104Z" fill="#044289"/>
<path d="M1014 104C1014 105.105 1014.9 106 1016 106C1017.1 106 1018 105.105 1018 104C1018 102.895 1017.1 102 1016 102C1014.9 102 1014 102.895 1014 104Z" fill="#044289"/>
<path d="M994 104C994 105.105 994.895 106 996 106C997.105 106 998 105.105 998 104C998 102.895 997.105 102 996 102C994.895 102 994 102.895 994 104Z" fill="#044289"/>
<path d="M974 104C974 105.105 974.895 106 976 106C977.105 106 978 105.105 978 104C978 102.895 977.105 102 976 102C974.895 102 974 102.895 974 104Z" fill="#044289"/>
<path d="M1064 116C1064 117.105 1064.9 118 1066 118C1067.1 118 1068 117.105 1068 116C1068 114.895 1067.1 114 1066 114C1064.9 114 1064 114.895 1064 116Z" fill="#044289"/>
<path d="M1044 116C1044 117.105 1044.9 118 1046 118C1047.1 118 1048 117.105 1048 116C1048 114.895 1047.1 114 1046 114C1044.9 114 1044 114.895 1044 116Z" fill="#044289"/>
<path d="M1024 116C1024 117.105 1024.9 118 1026 118C1027.1 118 1028 117.105 1028 116C1028 114.895 1027.1 114 1026 114C1024.9 114 1024 114.895 1024 116Z" fill="#044289"/>
<path d="M1004 116C1004 117.105 1004.9 118 1006 118C1007.1 118 1008 117.105 1008 116C1008 114.895 1007.1 114 1006 114C1004.9 114 1004 114.895 1004 116Z" fill="#044289"/>
<path d="M984 116C984 117.105 984.895 118 986 118C987.105 118 988 117.105 988 116C988 114.895 987.105 114 986 114C984.895 114 984 114.895 984 116Z" fill="#044289"/>
<rect x="782.5" y="76.5" width="255" height="255" fill="#1B1F23" stroke="#79B8FF"/>
<circle cx="954" cy="7.01416" r="5.5" stroke="#0366D6"/>
<circle cx="58" cy="17.0142" r="5.5" stroke="#0366D6"/>
<path d="M4 250C4 251.105 3.10457 252 2 252C0.895431 252 0 251.105 0 250C0 248.895 0.895431 248 2 248C3.10457 248 4 248.895 4 250Z" fill="#044289"/>
<path d="M24 250C24 251.105 23.1046 252 22 252C20.8954 252 20 251.105 20 250C20 248.895 20.8954 248 22 248C23.1046 248 24 248.895 24 250Z" fill="#044289"/>
<path d="M44 250C44 251.105 43.1046 252 42 252C40.8954 252 40 251.105 40 250C40 248.895 40.8954 248 42 248C43.1046 248 44 248.895 44 250Z" fill="#044289"/>
<path d="M64 250C64 251.105 63.1046 252 62 252C60.8954 252 60 251.105 60 250C60 248.895 60.8954 248 62 248C63.1046 248 64 248.895 64 250Z" fill="#044289"/>
<path d="M84 250C84 251.105 83.1046 252 82 252C80.8954 252 80 251.105 80 250C80 248.895 80.8954 248 82 248C83.1046 248 84 248.895 84 250Z" fill="#044289"/>
<path d="M14 262C14 263.105 13.1046 264 12 264C10.8954 264 10 263.105 10 262C10 260.895 10.8954 260 12 260C13.1046 260 14 260.895 14 262Z" fill="#044289"/>
<path d="M34 262C34 263.105 33.1046 264 32 264C30.8954 264 30 263.105 30 262C30 260.895 30.8954 260 32 260C33.1046 260 34 260.895 34 262Z" fill="#044289"/>
<path d="M54 262C54 263.105 53.1046 264 52 264C50.8954 264 50 263.105 50 262C50 260.895 50.8954 260 52 260C53.1046 260 54 260.895 54 262Z" fill="#044289"/>
<path d="M74 262C74 263.105 73.1046 264 72 264C70.8954 264 70 263.105 70 262C70 260.895 70.8954 260 72 260C73.1046 260 74 260.895 74 262Z" fill="#044289"/>
<path d="M94 262C94 263.105 93.1046 264 92 264C90.8954 264 90 263.105 90 262C90 260.895 90.8954 260 92 260C93.1046 260 94 260.895 94 262Z" fill="#044289"/>
<path d="M4 274C4 275.105 3.10457 276 2 276C0.895431 276 0 275.105 0 274C0 272.895 0.895431 272 2 272C3.10457 272 4 272.895 4 274Z" fill="#044289"/>
<path d="M24 274C24 275.105 23.1046 276 22 276C20.8954 276 20 275.105 20 274C20 272.895 20.8954 272 22 272C23.1046 272 24 272.895 24 274Z" fill="#044289"/>
<path d="M44 274C44 275.105 43.1046 276 42 276C40.8954 276 40 275.105 40 274C40 272.895 40.8954 272 42 272C43.1046 272 44 272.895 44 274Z" fill="#044289"/>
<path d="M64 274C64 275.105 63.1046 276 62 276C60.8954 276 60 275.105 60 274C60 272.895 60.8954 272 62 272C63.1046 272 64 272.895 64 274Z" fill="#044289"/>
<path d="M84 274C84 275.105 83.1046 276 82 276C80.8954 276 80 275.105 80 274C80 272.895 80.8954 272 82 272C83.1046 272 84 272.895 84 274Z" fill="#044289"/>
<path d="M14 286C14 287.105 13.1046 288 12 288C10.8954 288 10 287.105 10 286C10 284.895 10.8954 284 12 284C13.1046 284 14 284.895 14 286Z" fill="#044289"/>
<path d="M34 286C34 287.105 33.1046 288 32 288C30.8954 288 30 287.105 30 286C30 284.895 30.8954 284 32 284C33.1046 284 34 284.895 34 286Z" fill="#044289"/>
<path d="M54 286C54 287.105 53.1046 288 52 288C50.8954 288 50 287.105 50 286C50 284.895 50.8954 284 52 284C53.1046 284 54 284.895 54 286Z" fill="#044289"/>
<path d="M74 286C74 287.105 73.1046 288 72 288C70.8954 288 70 287.105 70 286C70 284.895 70.8954 284 72 284C73.1046 284 74 284.895 74 286Z" fill="#044289"/>
<path d="M94 286C94 287.105 93.1046 288 92 288C90.8954 288 90 287.105 90 286C90 284.895 90.8954 284 92 284C93.1046 284 94 284.895 94 286Z" fill="#044289"/>
<path d="M4 298C4 299.105 3.10457 300 2 300C0.895431 300 0 299.105 0 298C0 296.895 0.895431 296 2 296C3.10457 296 4 296.895 4 298Z" fill="#044289"/>
<path d="M24 298C24 299.105 23.1046 300 22 300C20.8954 300 20 299.105 20 298C20 296.895 20.8954 296 22 296C23.1046 296 24 296.895 24 298Z" fill="#044289"/>
<path d="M44 298C44 299.105 43.1046 300 42 300C40.8954 300 40 299.105 40 298C40 296.895 40.8954 296 42 296C43.1046 296 44 296.895 44 298Z" fill="#044289"/>
<path d="M64 298C64 299.105 63.1046 300 62 300C60.8954 300 60 299.105 60 298C60 296.895 60.8954 296 62 296C63.1046 296 64 296.895 64 298Z" fill="#044289"/>
<path d="M84 298C84 299.105 83.1046 300 82 300C80.8954 300 80 299.105 80 298C80 296.895 80.8954 296 82 296C83.1046 296 84 296.895 84 298Z" fill="#044289"/>
<path d="M14 310C14 311.105 13.1046 312 12 312C10.8954 312 10 311.105 10 310C10 308.895 10.8954 308 12 308C13.1046 308 14 308.895 14 310Z" fill="#044289"/>
<path d="M34 310C34 311.105 33.1046 312 32 312C30.8954 312 30 311.105 30 310C30 308.895 30.8954 308 32 308C33.1046 308 34 308.895 34 310Z" fill="#044289"/>
<path d="M54 310C54 311.105 53.1046 312 52 312C50.8954 312 50 311.105 50 310C50 308.895 50.8954 308 52 308C53.1046 308 54 308.895 54 310Z" fill="#044289"/>
<path d="M74 310C74 311.105 73.1046 312 72 312C70.8954 312 70 311.105 70 310C70 308.895 70.8954 308 72 308C73.1046 308 74 308.895 74 310Z" fill="#044289"/>
<path d="M94 310C94 311.105 93.1046 312 92 312C90.8954 312 90 311.105 90 310C90 308.895 90.8954 308 92 308C93.1046 308 94 308.895 94 310Z" fill="#044289"/>
<path d="M4 322C4 323.105 3.10457 324 2 324C0.895431 324 0 323.105 0 322C0 320.895 0.895431 320 2 320C3.10457 320 4 320.895 4 322Z" fill="#044289"/>
<path d="M24 322C24 323.105 23.1046 324 22 324C20.8954 324 20 323.105 20 322C20 320.895 20.8954 320 22 320C23.1046 320 24 320.895 24 322Z" fill="#044289"/>
<path d="M44 322C44 323.105 43.1046 324 42 324C40.8954 324 40 323.105 40 322C40 320.895 40.8954 320 42 320C43.1046 320 44 320.895 44 322Z" fill="#044289"/>
<path d="M64 322C64 323.105 63.1046 324 62 324C60.8954 324 60 323.105 60 322C60 320.895 60.8954 320 62 320C63.1046 320 64 320.895 64 322Z" fill="#044289"/>
<path d="M84 322C84 323.105 83.1046 324 82 324C80.8954 324 80 323.105 80 322C80 320.895 80.8954 320 82 320C83.1046 320 84 320.895 84 322Z" fill="#044289"/>
<rect x="30.5" y="36.5142" width="255" height="255" fill="#1B1F23" stroke="#79B8FF"/>
<path fill-rule="evenodd" clip-rule="evenodd" d="M596 302H588L594 288L576 306H584L578 320L596 302Z" fill="#C8E1FF"/>
<rect x="62" y="174" width="24" height="32" fill="#044289"/>
<rect x="118" y="174" width="144" height="32" fill="#044289"/>
<rect x="298" y="174" width="40" height="32" fill="#044289"/>
<rect x="18" y="76" width="24" height="48" fill="#005CC5"/>
<rect x="66" y="76" width="116" height="48" fill="#005CC5"/>
<path d="M178 216C170 216 170 200 162 200C154 200 154 216 146 216C138 216 138 200 130 200C122 200 122 216 114 216C106 216 106 200 98 200" stroke="#79B8FF" stroke-linecap="round" stroke-linejoin="round"/>
<path d="M180 129L175 137.66H165L160 129L165 120.34H175L180 129Z" stroke="#79B8FF" stroke-linecap="round" stroke-linejoin="round"/>
<rect x="742.313" y="131" width="16" height="16" transform="rotate(45 742.313 131)" stroke="#C8E1FF" stroke-linejoin="round"/>
<path d="M687 352C687 353.105 687.895 354 689 354C690.105 354 691 353.105 691 352C691 350.895 690.105 350 689 350C687.895 350 687 350.895 687 352Z" fill="#044289"/>
<path d="M667 352C667 353.105 667.895 354 669 354C670.105 354 671 353.105 671 352C671 350.895 670.105 350 669 350C667.895 350 667 350.895 667 352Z" fill="#044289"/>
<path d="M647 352C647 353.105 647.895 354 649 354C650.105 354 651 353.105 651 352C651 350.895 650.105 350 649 350C647.895 350 647 350.895 647 352Z" fill="#044289"/>
<path d="M627 352C627 353.105 627.895 354 629 354C630.105 354 631 353.105 631 352C631 350.895 630.105 350 629 350C627.895 350 627 350.895 627 352Z" fill="#044289"/>
<path d="M607 352C607 353.105 607.895 354 609 354C610.105 354 611 353.105 611 352C611 350.895 610.105 350 609 350C607.895 350 607 350.895 607 352Z" fill="#044289"/>
<path d="M677 364C677 365.105 677.895 366 679 366C680.105 366 681 365.105 681 364C681 362.895 680.105 362 679 362C677.895 362 677 362.895 677 364Z" fill="#044289"/>
<path d="M657 364C657 365.105 657.895 366 659 366C660.105 366 661 365.105 661 364C661 362.895 660.105 362 659 362C657.895 362 657 362.895 657 364Z" fill="#044289"/>
<path d="M637 364C637 365.105 637.895 366 639 366C640.105 366 641 365.105 641 364C641 362.895 640.105 362 639 362C637.895 362 637 362.895 637 364Z" fill="#044289"/>
<path d="M617 364C617 365.105 617.895 366 619 366C620.105 366 621 365.105 621 364C621 362.895 620.105 362 619 362C617.895 362 617 362.895 617 364Z" fill="#044289"/>
<path d="M597 364C597 365.105 597.895 366 599 366C600.105 366 601 365.105 601 364C601 362.895 600.105 362 599 362C597.895 362 597 362.895 597 364Z" fill="#044289"/>
<path d="M687 376C687 377.105 687.895 378 689 378C690.105 378 691 377.105 691 376C691 374.895 690.105 374 689 374C687.895 374 687 374.895 687 376Z" fill="#044289"/>
<path d="M667 376C667 377.105 667.895 378 669 378C670.105 378 671 377.105 671 376C671 374.895 670.105 374 669 374C667.895 374 667 374.895 667 376Z" fill="#044289"/>
<path d="M647 376C647 377.105 647.895 378 649 378C650.105 378 651 377.105 651 376C651 374.895 650.105 374 649 374C647.895 374 647 374.895 647 376Z" fill="#044289"/>
<path d="M627 376C627 377.105 627.895 378 629 378C630.105 378 631 377.105 631 376C631 374.895 630.105 374 629 374C627.895 374 627 374.895 627 376Z" fill="#044289"/>
<path d="M607 376C607 377.105 607.895 378 609 378C610.105 378 611 377.105 611 376C611 374.895 610.105 374 609 374C607.895 374 607 374.895 607 376Z" fill="#044289"/>
<path d="M677 388C677 389.105 677.895 390 679 390C680.105 390 681 389.105 681 388C681 386.895 680.105 386 679 386C677.895 386 677 386.895 677 388Z" fill="#044289"/>
<path d="M657 388C657 389.105 657.895 390 659 390C660.105 390 661 389.105 661 388C661 386.895 660.105 386 659 386C657.895 386 657 386.895 657 388Z" fill="#044289"/>
<path d="M637 388C637 389.105 637.895 390 639 390C640.105 390 641 389.105 641 388C641 386.895 640.105 386 639 386C637.895 386 637 386.895 637 388Z" fill="#044289"/>
<path d="M617 388C617 389.105 617.895 390 619 390C620.105 390 621 389.105 621 388C621 386.895 620.105 386 619 386C617.895 386 617 386.895 617 388Z" fill="#044289"/>
<path d="M597 388C597 389.105 597.895 390 599 390C600.105 390 601 389.105 601 388C601 386.895 600.105 386 599 386C597.895 386 597 386.895 597 388Z" fill="#044289"/>
<path d="M687 400C687 401.105 687.895 402 689 402C690.105 402 691 401.105 691 400C691 398.895 690.105 398 689 398C687.895 398 687 398.895 687 400Z" fill="#044289"/>
<path d="M667 400C667 401.105 667.895 402 669 402C670.105 402 671 401.105 671 400C671 398.895 670.105 398 669 398C667.895 398 667 398.895 667 400Z" fill="#044289"/>
<path d="M647 400C647 401.105 647.895 402 649 402C650.105 402 651 401.105 651 400C651 398.895 650.105 398 649 398C647.895 398 647 398.895 647 400Z" fill="#044289"/>
<path d="M627 400C627 401.105 627.895 402 629 402C630.105 402 631 401.105 631 400C631 398.895 630.105 398 629 398C627.895 398 627 398.895 627 400Z" fill="#044289"/>
<path d="M607 400C607 401.105 607.895 402 609 402C610.105 402 611 401.105 611 400C611 398.895 610.105 398 609 398C607.895 398 607 398.895 607 400Z" fill="#044289"/>
<path d="M677 412C677 413.105 677.895 414 679 414C680.105 414 681 413.105 681 412C681 410.895 680.105 410 679 410C677.895 410 677 410.895 677 412Z" fill="#044289"/>
<path d="M657 412C657 413.105 657.895 414 659 414C660.105 414 661 413.105 661 412C661 410.895 660.105 410 659 410C657.895 410 657 410.895 657 412Z" fill="#044289"/>
<path d="M637 412C637 413.105 637.895 414 639 414C640.105 414 641 413.105 641 412C641 410.895 640.105 410 639 410C637.895 410 637 410.895 637 412Z" fill="#044289"/>
<path d="M617 412C617 413.105 617.895 414 619 414C620.105 414 621 413.105 621 412C621 410.895 620.105 410 619 410C617.895 410 617 410.895 617 412Z" fill="#044289"/>
<path d="M597 412C597 413.105 597.895 414 599 414C600.105 414 601 413.105 601 412C601 410.895 600.105 410 599 410C597.895 410 597 410.895 597 412Z" fill="#044289"/>
<path d="M687 424C687 425.105 687.895 426 689 426C690.105 426 691 425.105 691 424C691 422.895 690.105 422 689 422C687.895 422 687 422.895 687 424Z" fill="#044289"/>
<path d="M667 424C667 425.105 667.895 426 669 426C670.105 426 671 425.105 671 424C671 422.895 670.105 422 669 422C667.895 422 667 422.895 667 424Z" fill="#044289"/>
<path d="M647 424C647 425.105 647.895 426 649 426C650.105 426 651 425.105 651 424C651 422.895 650.105 422 649 422C647.895 422 647 422.895 647 424Z" fill="#044289"/>
<path d="M627 424C627 425.105 627.895 426 629 426C630.105 426 631 425.105 631 424C631 422.895 630.105 422 629 422C627.895 422 627 422.895 627 424Z" fill="#044289"/>
<path d="M607 424C607 425.105 607.895 426 609 426C610.105 426 611 425.105 611 424C611 422.895 610.105 422 609 422C607.895 422 607 422.895 607 424Z" fill="#044289"/>
<rect x="406.5" y="137.5" width="255" height="255" fill="#1B1F23" stroke="#79B8FF"/>
<rect width="116" height="48" transform="matrix(-1 0 0 1 938 124)" fill="#044289"/>
<rect width="32" height="32" transform="matrix(-1 0 0 1 854 188)" fill="#0366D6"/>
<path d="M1018 261L1013 269.66H1003L998 261L1003 252.34H1013L1018 261Z" stroke="#79B8FF" stroke-linecap="round" stroke-linejoin="round"/>
<path d="M971.713 338.856L957.857 362.856L944 338.856L971.713 338.856Z" stroke="#2188FF" stroke-linecap="round" stroke-linejoin="round"/>
<circle cx="1012" cy="251" r="5.5" stroke="#79B8FF"/>
<path d="M985 319C979.343 313.343 990.657 302.029 985 296.373C979.343 290.716 968.03 302.029 962.373 296.373C956.716 290.716 968.03 279.402 962.373 273.745C956.716 268.088 945.402 279.402 939.745 273.745C934.089 268.088 945.402 256.775 939.745 251.118" stroke="#2188FF" stroke-linecap="round" stroke-linejoin="round"/>
<path d="M951.569 307.882C945.912 302.225 957.225 290.912 951.569 285.255C945.912 279.598 934.598 290.912 928.941 285.255C923.284 279.598 934.598 268.284 928.941 262.627C923.284 256.971 911.971 268.284 906.314 262.627C900.657 256.971 911.971 245.657 906.314 240" stroke="#79B8FF" stroke-linecap="round" stroke-linejoin="round"/>
<path d="M151 57.0141C245 -41.9859 421 0.0140991 330 91.0141C239 182.014 230.256 441.231 357 310.014C484.5 178.014 567.5 207.014 585 297.514C603.341 392.366 683.384 398.698 695 215.014C711 -37.9858 1054.5 -30.4858 903 121.014" stroke="#005CC5"/>
<path fill-rule="evenodd" clip-rule="evenodd" d="M900 113.014V115.014L901.25 117.514L890 125.014H880.5C879.4 125.014 878.825 126.339 879.65 127.164L887.5 135.014L877.5 147.514L890 137.514L897.85 145.364C898.675 146.189 900 145.589 900 144.514V135.014L907.5 123.764L910 125.014H912C913.1 125.014 913.675 123.689 912.85 122.864L902.15 112.164C901.325 111.339 900 111.939 900 113.014Z" fill="#C8E1FF"/>
<ellipse cx="363.305" cy="303.896" rx="11.7904" ry="4.33694" transform="rotate(-44.8239 363.305 303.896)" fill="#1B1F23"/>
<path fill-rule="evenodd" clip-rule="evenodd" d="M368.412 298.747C367.877 298.202 367.482 297.639 367.168 296.976C366.853 296.353 366.639 295.652 366.506 294.93C365.34 295.58 364.173 296.31 363.026 297.16C361.858 298.03 360.73 299.02 359.62 300.09C358.208 301.478 356.929 303.687 356.018 304.959L350.018 304.907L343.966 310.874L349.965 310.927L354 306.962C353.307 308.496 351.908 312.904 351.948 312.944L353.93 314.961C353.97 315.002 358.401 313.72 359.948 313.014L355.913 316.979L355.86 322.978L361.913 317.031L361.965 311.031C363.253 310.143 365.484 308.882 366.896 307.514C368.005 306.424 369.015 305.273 369.865 304.14C370.755 302.988 371.506 301.834 372.175 300.72C371.457 300.554 370.779 300.328 370.121 300.022C369.504 299.697 368.948 299.292 368.412 298.747ZM376.139 291.154C376.139 291.154 375.952 291.913 375.52 293.269C375.108 294.665 374.393 296.419 373.354 298.57C371.956 298.398 370.82 297.888 370.047 297.101C369.274 296.315 368.803 295.21 368.675 293.809C370.844 292.788 372.591 292.083 373.974 291.695C375.378 291.308 376.139 291.154 376.139 291.154Z" fill="#C8E1FF"/>
<path fill-rule="evenodd" clip-rule="evenodd" d="M102 94.0142V106.014H114L146 74.0142L134 62.0142L102 94.0142ZM114 102.014H106V94.0142H110V98.0142H114V102.014ZM155.2 64.8142L150 70.0142L138 58.0142L143.2 52.8142C144.76 51.2542 147.28 51.2542 148.84 52.8142L155.2 59.1742C156.76 60.7342 156.76 63.2542 155.2 64.8142Z" fill="#C8E1FF"/>
<path fill-rule="evenodd" clip-rule="evenodd" d="M700 212C698.06 212 696.62 212.84 695.6 214C694.58 215.16 694.04 215.84 694 216C693.96 215.84 693.44 215.16 692.4 214C691.36 212.84 690.06 212 688 212C684.736 212.172 682.093 214.665 682 218C682 219.04 682.18 221.04 683.34 223.34C684.5 225.64 688.02 229.22 694 234C699.96 229.22 703.54 225.66 704.68 223.34C705.82 221.02 706 219 706 218C705.906 214.62 703.316 212.175 700 212Z" fill="#C8E1FF"/>
<path d="M343.713 86.8564L329.856 110.856L316 86.8564L343.713 86.8564Z" stroke="#C8E1FF" stroke-linejoin="round"/>
<circle cx="623" cy="105" r="9.5" stroke="#0366D6"/>
<circle cx="640" cy="86" r="5.5" stroke="#0366D6"/>
<rect x="465" y="332" width="30" height="24" fill="#044289"/>
<rect x="555" y="332" width="30" height="24" fill="#044289"/>
<rect x="519" y="332" width="12" height="24" fill="#044289"/>
<rect x="434" y="282" width="33.0236" height="33.0159" fill="#2188FF"/>
<rect x="494.543" y="282" width="88.0628" height="33.0159" fill="#2188FF"/>
<path fill-rule="evenodd" clip-rule="evenodd" d="M597.867 392C606.931 377.963 619.996 327.425 619.996 287.526C619.996 235.105 599.2 208.999 589.996 208.999C580.791 208.999 559.996 235.105 559.996 287.526C559.996 327.425 573.061 377.963 582.125 392H597.867Z" fill="#005CC5"/>
<mask id="mask0" mask-type="alpha" maskUnits="userSpaceOnUse" x="559" y="208" width="61" height="184">
<path fill-rule="evenodd" clip-rule="evenodd" d="M597.867 392C606.931 377.963 619.996 327.425 619.996 287.526C619.996 235.105 599.2 208.999 589.996 208.999C580.791 208.999 559.996 235.105 559.996 287.526C559.996 327.425 573.061 377.963 582.125 392H597.867Z" fill="#005CC5"/>
</mask>
<g mask="url(#mask0)">
<path fill-rule="evenodd" clip-rule="evenodd" d="M591.341 243.146C591.341 236.734 586.267 231.537 580.008 231.537C573.749 231.537 568.675 236.734 568.675 243.146V264.997C568.675 271.408 573.749 276.605 580.008 276.605C586.267 276.605 591.341 271.408 591.341 264.997V243.146ZM580.008 232.903C585.531 232.903 590.008 237.489 590.008 243.146V264.997C590.008 270.653 585.531 275.239 580.008 275.239C574.485 275.239 570.008 270.653 570.008 264.997V243.146C570.008 237.489 574.485 232.903 580.008 232.903Z" fill="#79B8FF"/>
<path fill-rule="evenodd" clip-rule="evenodd" d="M596.675 252.022C596.675 240.709 587.721 231.537 576.675 231.537C565.629 231.537 556.675 240.709 556.675 252.022V277.971C556.675 289.284 565.629 298.456 576.675 298.456C587.721 298.456 596.675 289.284 596.675 277.971V252.022ZM576.675 232.903C586.984 232.903 595.341 241.463 595.341 252.022V277.971C595.341 288.53 586.984 297.09 576.675 297.09C566.365 297.09 558.008 288.53 558.008 277.971V252.022C558.008 241.463 566.365 232.903 576.675 232.903Z" fill="#79B8FF"/>
<path fill-rule="evenodd" clip-rule="evenodd" d="M620.008 304.601H601.341C591.769 304.601 584.008 312.55 584.008 322.355V401.565C584.008 411.37 591.769 419.319 601.341 419.319H620.008C629.581 419.319 637.341 411.37 637.341 401.565V322.355C637.341 312.55 629.581 304.601 620.008 304.601ZM620.008 305.967C628.845 305.967 636.008 313.304 636.008 322.355V401.565C636.008 410.616 628.845 417.953 620.008 417.953H601.341C592.505 417.953 585.341 410.616 585.341 401.565V322.355C585.341 313.304 592.505 305.967 601.341 305.967H620.008Z" fill="#79B8FF"/>
<path fill-rule="evenodd" clip-rule="evenodd" d="M617.341 320.99H606.675C600.047 320.99 594.675 326.493 594.675 333.281V370.154C594.675 376.942 600.047 382.445 606.675 382.445H617.341C623.969 382.445 629.341 376.942 629.341 370.154V333.281C629.341 326.493 623.969 320.99 617.341 320.99ZM617.341 322.355C623.233 322.355 628.008 327.247 628.008 333.281V370.154C628.008 376.188 623.233 381.08 617.341 381.08H606.675C600.784 381.08 596.008 376.188 596.008 370.154V333.281C596.008 327.247 600.784 322.355 606.675 322.355H617.341Z" fill="#79B8FF"/>
<path fill-rule="evenodd" clip-rule="evenodd" d="M617.341 333.281H610.675C605.52 333.281 601.341 337.561 601.341 342.841V363.326C601.341 368.606 605.52 372.886 610.675 372.886H617.341C622.496 372.886 626.675 368.606 626.675 363.326V342.841C626.675 337.561 622.496 333.281 617.341 333.281ZM617.341 334.646C621.76 334.646 625.341 338.315 625.341 342.841V363.326C625.341 367.851 621.76 371.52 617.341 371.52H610.675C606.257 371.52 602.675 367.851 602.675 363.326V342.841C602.675 338.315 606.257 334.646 610.675 334.646H617.341Z" fill="#79B8FF"/>
</g>
<path fill-rule="evenodd" clip-rule="evenodd" d="M615.887 249.974H564.105C570.641 222.631 583.345 208.999 589.996 208.999C596.647 208.999 609.351 222.631 615.887 249.974Z" fill="#044289"/>
<path d="M623 179.086C623 197.265 608.225 212.001 590 212.001C571.775 212.001 557 197.265 557 179.086C557 157.829 588.625 132.457 590 116C591.375 132.457 623 158.515 623 179.086Z" fill="#005CC5" stroke="#005CC5" stroke-width="2" stroke-linecap="round" stroke-linejoin="round"/>
<mask id="mask1" mask-type="alpha" maskUnits="userSpaceOnUse" x="556" y="115" width="68" height="99">
<path d="M623 179.086C623 197.265 608.225 212.001 590 212.001C571.775 212.001 557 197.265 557 179.086C557 157.829 588.625 132.457 590 116C591.375 132.457 623 158.515 623 179.086Z" fill="#C8E1FF" stroke="#C8E1FF" stroke-width="2"/>
</mask>
<g mask="url(#mask1)">
<path d="M615.987 187.955C615.987 208.113 599.645 224.455 579.487 224.455C559.329 224.455 542.987 208.113 542.987 187.955C542.987 167.796 559.329 151.454 579.487 151.454C599.645 151.454 615.987 167.796 615.987 187.955Z" fill="#79B8FF" stroke="#79B8FF" stroke-width="2"/>
</g>
<path d="M534 166C546 166 546 190 558 190C570 190 570 166 582 166C594 166 594 190 606 190" stroke="#005CC5" stroke-linecap="round"/>
</g>
<defs>
<clipPath id="clip0">
<rect width="1068" height="426" fill="white"/>
</clipPath>
</defs>
</svg>
